<svg width="914" height="400" fill="none" xmlns="http://www.w3.org/2000/svg"><style>#CL0 {fill: #333;}@media (prefers-color-scheme: dark) {#CL0 {fill: #CCC;}}</style><path d="M416.552 211.248v-4.375a8.52 8.52 0 0 0 2.584 1.504c.93.328 1.869.492 2.816.492.556 0 1.039-.05 1.45-.15.419-.101.765-.237 1.039-.41.282-.183.492-.392.629-.629.136-.246.205-.511.205-.793 0-.383-.11-.725-.328-1.026-.219-.3-.52-.578-.903-.834a8.984 8.984 0 0 0-1.34-.738 47.916 47.916 0 0 0-1.681-.725c-1.532-.638-2.675-1.417-3.432-2.337-.747-.921-1.121-2.033-1.121-3.336 0-1.021.205-1.896.615-2.625a5.223 5.223 0 0 1 1.668-1.819c.711-.474 1.531-.82 2.461-1.039.93-.228 1.914-.342 2.953-.342 1.021 0 1.923.064 2.707.192.793.118 1.522.305 2.188.56v4.088a6.444 6.444 0 0 0-1.08-.601 7.684 7.684 0 0 0-1.19-.424 8.425 8.425 0 0 0-1.23-.26 8.462 8.462 0 0 0-1.149-.082c-.501 0-.957.05-1.367.15-.41.092-.756.224-1.039.397a1.983 1.983 0 0 0-.656.629 1.441 1.441 0 0 0-.233.806c0 .329.087.625.26.889.173.255.419.501.738.738.319.228.707.456 1.163.684.455.219.97.447 1.545.684.783.328 1.485.679 2.105 1.052.629.365 1.167.78 1.613 1.244a4.86 4.86 0 0 1 1.026 1.6c.237.593.355 1.285.355 2.078 0 1.094-.21 2.015-.629 2.762-.41.738-.97 1.34-1.681 1.805-.711.455-1.541.783-2.489.984a14.21 14.21 0 0 1-2.98.301c-1.076 0-2.101-.091-3.076-.274-.966-.182-1.805-.455-2.516-.82Zm15.135 0v-4.375a8.532 8.532 0 0 0 2.584 1.504c.93.328 1.869.492 2.817.492a6.17 6.17 0 0 0 1.449-.15c.419-.101.766-.237 1.039-.41.283-.183.492-.392.629-.629.137-.246.205-.511.205-.793a1.7 1.7 0 0 0-.328-1.026c-.219-.3-.52-.578-.902-.834a9.086 9.086 0 0 0-1.34-.738 48 48 0 0 0-1.682-.725c-1.531-.638-2.675-1.417-3.432-2.337-.747-.921-1.121-2.033-1.121-3.336 0-1.021.205-1.896.616-2.625a5.223 5.223 0 0 1 1.668-1.819c.71-.474 1.531-.82 2.46-1.039.93-.228 1.915-.342 2.954-.342 1.02 0 1.923.064 2.707.192.793.118 1.522.305 2.187.56v4.088a6.444 6.444 0 0 0-1.08-.601 7.672 7.672 0 0 0-1.189-.424 8.465 8.465 0 0 0-1.231-.26 8.459 8.459 0 0 0-1.148-.082c-.502 0-.957.05-1.368.15-.41.092-.756.224-1.039.397a1.983 1.983 0 0 0-.656.629 1.44 1.44 0 0 0-.232.806c0 .329.086.625.26.889.173.255.419.501.738.738.319.228.706.456 1.162.684.456.219.971.447 1.545.684.784.328 1.486.679 2.105 1.052.629.365 1.167.78 1.614 1.244.446.465.788.999 1.025 1.6.237.593.355 1.285.355 2.078 0 1.094-.209 2.015-.628 2.762a5.079 5.079 0 0 1-1.682 1.805c-.711.455-1.54.783-2.488.984-.939.201-1.933.301-2.981.301a16.66 16.66 0 0 1-3.076-.274c-.966-.182-1.805-.455-2.516-.82Zm27.714.752h-11.676v-19.605h4.416v16.023h7.26V212Zm18.933-.725c-1.513.711-3.241 1.067-5.182 1.067-1.385 0-2.643-.242-3.773-.725a8.543 8.543 0 0 1-2.899-2.037c-.793-.866-1.408-1.896-1.846-3.09-.428-1.194-.642-2.497-.642-3.91 0-1.486.228-2.866.683-4.142.465-1.286 1.126-2.398 1.983-3.336a9.11 9.11 0 0 1 3.103-2.229c1.222-.538 2.589-.807 4.102-.807 1.668 0 3.158.256 4.471.766v1.941a9.932 9.932 0 0 0-4.498-1.052c-1.267 0-2.393.218-3.377.656a6.96 6.96 0 0 0-2.489 1.832c-.674.775-1.189 1.695-1.545 2.762-.355 1.057-.533 2.215-.533 3.472 0 1.131.16 2.197.479 3.2a7.754 7.754 0 0 0 1.408 2.611 6.781 6.781 0 0 0 2.338 1.777c.929.438 2.01.657 3.24.657 1.887 0 3.546-.397 4.977-1.19v1.777Zm3.623.725v-19.605h1.819v17.951h7.875V212h-9.694Zm14.274 0h-1.818v-19.605h1.818V212Z" id="CL0"/></svg>